PathFileType	4	(x/y/z)	S10_M20_T01
DataRate	CameraRate	NumFrames	NumMarkers	Units	OrigDataRate	OrigDataStartFrame	OrigNumFrames
240	240	11	51	mm	240	445	508
Frame#	Time	Sternum			R.Acromium			L.Acromium			Top.Head			R.ASIS			L.ASIS			R.PSIS			L.PSIS			R.Great.Tro			L.Great.Tro			R.Iliac.Crest			L.Iliac.Crest			V.Sacral			R.Thigh.Upper.Post			R.Thigh.Lower.Ant			R.Thigh.Lower.Post			R.Thigh.Upper.Ant			R.Knee.Lat			R.Knee.Med			R.Shank.Upper.Post			R.Shank.Lower.Ant			R.Shank.Lower.Post			R.Shank.Upper.Ant			R.Ankle.Lat			R.Ankle.Med			R.Heel.Upper			R.Heel.Med			R.Heel.Lat			R.Toe.Lat			R.Toe.Med			R.Toe.Tip			L.Thigh.Upper.Post			L.Thigh.Lower.Ant			L.Thigh.Lower.Post			L.Thigh.Upper.Ant			L.Knee.Lat			L.Knee.Med			L.Shank.Upper.Post			L.Shank.Lower.Ant			L.Shank.Lower.Post			L.Shank.Upper.Ant			L.Ankle.Lat			L.Ankle.Med			L.Heel.Upper			L.Heel.Med			L.Heel.Lat			L.Toe.Lat			L.Toe.Med			L.Toe.Tip			Cervical.Spine			Back			
		X1	Y1	Z1	X2	Y2	Z2	X3	Y3	Z3	X4	Y4	Z4	X5	Y5	Z5	X6	Y6	Z6	X7	Y7	Z7	X8	Y8	Z8	X9	Y9	Z9	X10	Y10	Z10	X11	Y11	Z11	X12	Y12	Z12	X13	Y13	Z13	X14	Y14	Z14	X15	Y15	Z15	X16	Y16	Z16	X17	Y17	Z17	X18	Y18	Z18	X19	Y19	Z19	X20	Y20	Z20	X21	Y21	Z21	X22	Y22	Z22	X23	Y23	Z23	X24	Y24	Z24	X25	Y25	Z25	X26	Y26	Z26	X27	Y27	Z27	X28	Y28	Z28	X29	Y29	Z29	X30	Y30	Z30	X31	Y31	Z31	X32	Y32	Z32	X33	Y33	Z33	X34	Y34	Z34	X35	Y35	Z35	X36	Y36	Z36	X37	Y37	Z37	X38	Y38	Z38	X39	Y39	Z39	X40	Y40	Z40	X41	Y41	Z41	X42	Y42	Z42	X43	Y43	Z43	X44	Y44	Z44	X45	Y45	Z45	X46	Y46	Z46	X47	Y47	Z47	X48	Y48	Z48	X49	Y49	Z49	X50	Y50	Z50	X51	Y51	Z51	

445	1.85	770.5	1277	340.95	642.4	1434.2	490.47	664.83	1462.5	184.97	636.58	1751.6	359.52	720.29	1004.8	438.16	703.03	1023.1	209.35	512.3	1033.3	366.17	514.03	1043.6	285.67	657.17	928.12	516.77	627.73	962.74	153.14	626.91	1089.9	490.65	639.39	1103.9	188.25	490.41	1005.1	328.89	747.05	739.61	522.26	828.59	692.65	482.34	780.38	656.52	515.86	795.6	777.8	483.52	836.05	542.78	479.18	829.92	537.23	349.4	829.23	312.64	491.99	911.09	270.78	485.18	851.78	241.73	491.19	893.59	345.98	485.65	903.55	134.43	479.71	922.94	145.6	402.35	869.46	68.533	429.48	890.69	46.443	403.66	880.88	47.242	464.55	1041.2	97.958	520.47	1070.2	115.88	415.68	1114.1	154.01	460.29	532.33	706.38	171.26	586.46	611.35	190.7	513.13	615.19	195.13	609.4	696.57	167.71	526.31	519.72	203.27	548.57	515.58	329.11	418.14	322.26	218.46	465.91	223.48	234.55	406.17	246.57	232.58	478.46	298.29	220.49	410.81	116.23	249.15	431.54	129.49	334.03	340.95	99.237	300.09	348.93	63.839	330.01	341.55	71.099	265.83	511.38	42.093	217.03	545.09	41.512	323.49	600.24	44.93	272.28	577.81	1499.6	341.74	488.79	1295	323.49
446	1.8542	775.27	1276.2	341.07	647.2	1433.3	490.83	669.41	1461.7	185.28	641.44	1750.8	360.04	725.34	1003.8	438.03	707.48	1022.3	209.27	517.01	1032.6	366.44	518.68	1042.9	286.1	662.08	927.1	516.75	631.8	962.08	153.16	632.11	1088.9	490.83	643.86	1103.2	188.42	495.14	1004.5	329.36	750.97	738.08	522.26	832.45	690.96	482.38	784.06	654.9	515.72	799.7	776.2	483.66	840.08	541.57	478.81	834.09	535.86	348.98	838.08	311.4	491.88	920.87	271.3	484.99	862.21	240.97	491	901.67	346.12	485.41	916.42	134.79	479.57	935.4	146.36	402.25	883.73	68.171	429.52	905.35	46.602	403.58	895.62	47.126	464.5	1055	101.21	520.21	1083.4	119.88	415.31	1126.5	158.88	459.89	535.01	706.29	171.28	588.71	611	190.55	515.41	615.21	195.1	612.05	696.1	167.56	528.07	519.62	203.15	550.59	515.32	328.94	419.08	322.63	218.51	466.47	223.63	234.47	406.82	246.99	232.65	479.29	298.4	220.4	411.05	116.51	249.21	431.9	129.76	334.05	341.17	99.68	300.12	349.08	64.277	330.05	341.68	71.526	265.86	511.41	42.085	216.99	545.14	41.547	323.45	600.28	44.869	272.24	582.56	1498.7	342.14	493.52	1294.1	323.98
447	1.8583	780.06	1275.3	341.18	652.04	1432.3	491.2	674	1460.9	185.6	646.31	1749.9	360.58	730.41	1002.8	437.89	711.94	1021.4	209.18	521.72	1032	366.71	523.36	1042.3	286.54	667.02	926.06	516.72	635.88	961.39	153.2	637.34	1088	491.01	648.35	1102.4	188.59	499.88	1003.9	329.84	754.94	736.56	522.26	836.33	689.26	482.42	787.77	653.28	515.6	803.84	774.59	483.76	844.1	540.33	478.47	838.22	534.47	348.61	846.85	310.22	491.77	930.5	271.89	484.79	872.53	240.3	490.8	909.64	346.29	485.17	929.09	135.27	479.38	947.67	147.24	402.13	897.81	67.977	429.51	919.81	46.936	403.46	910.16	47.179	464.4	1068.4	104.55	519.93	1096.2	123.98	414.93	1138.6	163.79	459.5	537.73	706.19	171.3	590.99	610.64	190.4	517.71	615.22	195.08	614.74	695.63	167.41	529.86	519.53	203.05	552.65	515.07	328.79	420.04	323.01	218.56	467.05	223.79	234.4	407.49	247.41	232.73	480.15	298.51	220.32	411.3	116.8	249.26	432.27	130.04	334.08	341.41	100.13	300.15	349.23	64.728	330.1	341.82	71.967	265.89	511.44	42.076	216.96	545.2	41.585	323.41	600.33	44.809	272.21	587.32	1497.8	342.55	498.27	1293.2	324.48
448	1.8625	784.88	1274.5	341.29	656.91	1431.3	491.58	678.61	1460	185.94	651.18	1749	361.12	735.5	1001.8	437.75	716.41	1020.6	209.09	526.46	1031.3	366.98	528.05	1041.6	286.99	672.02	925.01	516.69	639.98	960.7	153.23	642.6	1087	491.19	652.84	1101.7	188.76	504.64	1003.2	330.33	758.96	735.05	522.26	840.25	687.56	482.46	791.52	651.67	515.5	808.01	772.97	483.84	848.11	539.09	478.16	842.31	533.08	348.27	855.54	309.11	491.65	939.98	272.54	484.58	882.73	239.71	490.59	917.51	346.48	484.94	941.56	135.86	479.15	959.76	148.24	401.97	911.68	67.94	429.45	934.03	47.436	403.28	924.47	47.388	464.23	1081.6	107.97	519.64	1108.9	128.15	414.53	1150.4	168.75	459.12	540.49	706.1	171.33	593.31	610.28	190.26	520.05	615.23	195.06	617.45	695.15	167.28	531.68	519.43	202.95	554.73	514.81	328.65	421.04	323.4	218.61	467.65	223.96	234.33	408.18	247.85	232.8	481.04	298.62	220.25	411.56	117.1	249.32	432.64	130.33	334.1	341.65	100.6	300.18	349.39	65.195	330.14	341.97	72.423	265.92	511.47	42.068	216.92	545.26	41.627	323.36	600.38	44.752	272.18	592.11	1496.9	342.99	503.04	1292.3	325
449	1.8667	789.72	1273.6	341.4	661.82	1430.3	491.98	683.24	1459.2	186.28	656.06	1748.1	361.68	740.61	1000.7	437.61	720.9	1019.7	209	531.21	1030.5	367.26	532.77	1040.9	287.45	677.05	923.95	516.66	644.1	959.98	153.27	647.88	1086	491.37	657.35	1100.9	188.93	509.41	1002.6	330.84	763.03	733.56	522.26	844.21	685.85	482.48	795.32	650.07	515.42	812.23	771.35	483.89	852.12	537.85	477.89	846.37	531.68	347.98	864.14	308.06	491.52	949.31	273.22	484.36	892.79	239.19	490.35	925.26	346.69	484.71	953.83	136.54	478.88	971.63	149.34	401.79	925.34	68.048	429.33	948.03	48.086	403.03	938.55	47.738	464.01	1094.5	111.44	519.34	1121.2	132.38	414.14	1162	173.71	458.77	543.28	706	171.36	595.66	609.92	190.12	522.42	615.24	195.06	620.2	694.66	167.14	533.55	519.34	202.86	556.85	514.55	328.53	422.06	323.79	218.67	468.28	224.14	234.27	408.9	248.29	232.89	481.96	298.74	220.18	411.83	117.41	249.38	433.02	130.63	334.13	341.9	101.09	300.21	349.55	65.678	330.18	342.13	72.895	265.95	511.5	42.061	216.89	545.32	41.673	323.31	600.43	44.695	272.15	596.92	1496	343.44	507.84	1291.4	325.54
450	1.8708	794.58	1272.7	341.51	666.76	1429.3	492.38	687.89	1458.3	186.64	660.94	1747.2	362.25	745.74	999.63	437.48	725.4	1018.8	208.91	535.99	1029.8	367.55	537.51	1040.2	287.92	682.14	922.87	516.64	648.25	959.25	153.31	653.19	1085	491.55	661.86	1100.1	189.1	514.19	1001.9	331.35	767.17	732.09	522.25	848.22	684.14	482.49	799.18	648.49	515.35	816.5	769.73	483.91	856.14	536.6	477.65	850.39	530.28	347.72	872.64	307.06	491.38	958.48	273.95	484.12	902.71	238.75	490.1	932.91	346.91	484.48	965.86	137.31	478.57	983.29	150.53	401.58	938.76	68.29	429.15	961.77	48.874	402.73	952.37	48.212	463.72	1107.2	114.95	519.03	1133.2	136.64	413.73	1173.2	178.67	458.43	546.11	705.89	171.41	598.04	609.56	189.98	524.83	615.24	195.06	622.99	694.17	167.02	535.46	519.25	202.79	559.01	514.29	328.42	423.12	324.2	218.72	468.92	224.32	234.22	409.65	248.75	232.98	482.9	298.86	220.12	412.12	117.73	249.44	433.41	130.94	334.15	342.16	101.59	300.23	349.72	66.179	330.22	342.29	73.383	265.97	511.53	42.054	216.86	545.39	41.722	323.26	600.48	44.64	272.11	601.76	1495	343.9	512.66	1290.4	326.09
451	1.875	799.47	1271.8	341.61	671.73	1428.2	492.8	692.56	1457.4	187.02	665.83	1746.2	362.83	750.89	998.56	437.35	729.91	1017.9	208.82	540.8	1029.1	367.87	542.26	1039.5	288.4	687.26	921.79	516.62	652.41	958.51	153.36	658.52	1084	491.74	666.39	1099.3	189.27	519	1001.2	331.88	771.39	730.64	522.25	852.29	682.45	482.49	803.1	646.94	515.3	820.84	768.13	483.9	860.19	535.35	477.44	854.38	528.88	347.51	881.04	306.11	491.22	967.48	274.7	483.87	912.47	238.37	489.83	940.45	347.14	484.26	977.66	138.14	478.23	994.73	151.8	401.35	951.92	68.649	428.9	975.24	49.782	402.36	965.93	48.794	463.37	1119.5	118.46	518.72	1144.9	140.9	413.33	1184.2	183.6	458.12	548.98	705.79	171.47	600.47	609.19	189.84	527.27	615.24	195.08	625.81	693.67	166.9	537.41	519.16	202.72	561.21	514.03	328.33	424.21	324.61	218.78	469.6	224.5	234.17	410.42	249.22	233.08	483.88	298.98	220.07	412.42	118.07	249.5	433.82	131.26	334.18	342.43	102.11	300.25	349.9	66.699	330.26	342.46	73.891	265.99	511.57	42.049	216.82	545.46	41.773	323.21	600.53	44.586	272.08	606.62	1494.1	344.38	517.51	1289.5	326.66
452	1.8792	804.38	1270.8	341.71	676.74	1427.2	493.22	697.27	1456.5	187.41	670.72	1745.3	363.43	756.05	997.48	437.23	734.44	1016.9	208.74	545.64	1028.3	368.21	547.04	1038.8	288.88	692.43	920.69	516.61	656.6	957.75	153.41	663.87	1082.9	491.92	670.94	1098.5	189.45	523.82	1000.5	332.41	775.68	729.23	522.24	856.43	680.77	482.46	807.11	645.41	515.26	825.25	766.55	483.87	864.27	534.1	477.26	858.36	527.49	347.34	889.32	305.21	491.05	976.32	275.47	483.62	922.06	238.05	489.54	947.87	347.37	484.04	989.2	139.03	477.85	1005.9	153.13	401.08	964.81	69.109	428.59	988.42	50.793	401.92	979.19	49.465	462.95	1131.4	121.95	518.4	1156.4	145.16	412.93	1194.8	188.47	457.84	551.9	705.67	171.53	602.94	608.82	189.71	529.76	615.24	195.11	628.68	693.17	166.78	539.4	519.06	202.67	563.46	513.76	328.24	425.35	325.04	218.84	470.3	224.7	234.13	411.23	249.69	233.18	484.9	299.11	220.03	412.73	118.42	249.56	434.23	131.59	334.21	342.71	102.65	300.27	350.08	67.24	330.29	342.63	74.417	266.01	511.61	42.044	216.79	545.53	41.828	323.15	600.58	44.533	272.05	611.51	1493.1	344.88	522.39	1288.5	327.24
453	1.8833	809.32	1269.8	341.81	681.79	1426.1	493.66	702	1455.6	187.81	675.62	1744.3	364.03	761.22	996.39	437.11	738.99	1016	208.65	550.52	1027.5	368.57	551.83	1038	289.38	697.65	919.6	516.6	660.81	956.98	153.47	669.23	1081.9	492.12	675.5	1097.6	189.62	528.66	999.7	332.95	780.07	727.85	522.23	860.63	679.12	482.41	811.2	643.92	515.23	829.73	765	483.8	868.4	532.87	477.11	862.31	526.09	347.21	897.49	304.34	490.86	984.98	276.24	483.35	931.47	237.77	489.24	955.18	347.59	483.83	1000.5	139.95	477.44	1016.9	154.51	400.79	977.42	69.654	428.22	1001.3	51.887	401.43	992.16	50.206	462.47	1143.1	125.4	518.07	1167.5	149.38	412.53	1205.2	193.25	457.59	554.86	705.56	171.62	605.45	608.44	189.59	532.29	615.23	195.16	631.58	692.66	166.68	541.45	518.97	202.63	565.75	513.48	328.17	426.52	325.47	218.89	471.03	224.9	234.09	412.06	250.18	233.29	485.95	299.23	220	413.05	118.78	249.62	434.66	131.93	334.23	343.01	103.21	300.28	350.27	67.803	330.32	342.82	74.963	266.04	511.64	42.041	216.76	545.61	41.883	323.1	600.63	44.48	272.02	616.43	1492.2	345.39	527.28	1287.5	327.83
454	1.8875	814.28	1268.9	341.9	686.87	1425	494.11	706.76	1454.7	188.23	680.52	1743.3	364.65	766.41	995.29	437	743.55	1015	208.57	555.43	1026.6	368.96	556.65	1037.2	289.88	702.9	918.5	516.61	665.04	956.2	153.54	674.61	1080.8	492.31	680.07	1096.8	189.8	533.53	998.93	333.49	784.55	726.51	522.22	864.92	677.49	482.34	815.39	642.47	515.2	834.29	763.47	483.71	872.58	531.65	476.99	866.26	524.7	347.11	905.52	303.51	490.64	993.47	277.01	483.08	940.69	237.53	488.92	962.38	347.8	483.63	1011.5	140.89	477.01	1027.6	155.91	400.47	989.71	70.264	427.79	1013.9	53.044	400.87	1004.8	50.997	461.93	1154.4	128.77	517.73	1178.3	153.53	412.13	1215.2	197.92	457.36	557.87	705.44	171.71	608.01	608.06	189.47	534.86	615.22	195.22	634.52	692.15	166.59	543.55	518.87	202.6	568.1	513.2	328.12	427.74	325.91	218.95	471.79	225.1	234.06	412.94	250.67	233.4	487.04	299.36	219.98	413.39	119.17	249.68	435.09	132.27	334.26	343.31	103.8	300.29	350.46	68.389	330.35	343.01	75.531	266.06	511.69	42.039	216.73	545.68	41.94	323.04	600.68	44.428	271.99	621.37	1491.2	345.91	532.21	1286.5	328.43
455	1.8917	819.27	1267.8	342	691.98	1423.8	494.56	711.55	1453.7	188.66	685.43	1742.3	365.29	771.6	994.2	436.9	748.13	1014.1	208.5	560.38	1025.8	369.37	561.48	1036.4	290.39	708.2	917.39	516.63	669.3	955.4	153.61	680	1079.7	492.51	684.66	1095.9	189.99	538.41	998.14	334.04	789.14	725.2	522.2	869.3	675.9	482.24	819.68	641.05	515.17	838.94	761.99	483.6	876.83	530.45	476.9	870.22	523.31	347.05	913.42	302.7	490.39	1001.8	277.75	482.81	949.71	237.32	488.59	969.47	347.99	483.43	1022.2	141.84	476.56	1038	157.31	400.13	1001.7	70.919	427.3	1026.1	54.242	400.27	1017.1	51.816	461.34	1165.4	132.05	517.39	1188.7	157.59	411.74	1225	202.45	457.16	560.93	705.31	171.83	610.63	607.68	189.36	537.49	615.2	195.3	637.51	691.64	166.51	545.71	518.77	202.58	570.5	512.9	328.08	429	326.36	219.01	472.58	225.32	234.03	413.84	251.18	233.52	488.18	299.5	219.97	413.75	119.56	249.74	435.55	132.64	334.28	343.63	104.4	300.29	350.67	69	330.38	343.22	76.119	266.08	511.73	42.038	216.71	545.76	41.997	322.98	600.74	44.376	271.96	626.35	1490.2	346.45	537.16	1285.6	329.03
